Force Plate Walk 9
version=1
nRows=49
nColumns=19
inDegrees=yes
endheader
time	ground_force1_vx	ground_force1_vy	ground_force1_vz	ground_force1_px	ground_force1_py	ground_force1_pz	ground_torque1_x	ground_torque1_y	ground_torque1_z	ground_force2_vx	ground_force2_vy	ground_force2_vz	ground_force2_px	ground_force2_py	ground_force2_pz	ground_torque2_x	ground_torque2_y	ground_torque2_z
4.792000	-52.567158	622.656250	24.197210	0.682821	0.000000	-0.224418	0.000011	-4.818033	0.000010	-0.000000	-0.000000	0.000000	0.254000	0.000000	-0.232000	0.000000	0.000000	0.000000	
4.793000	-53.651196	622.803162	24.190596	0.682228	0.000000	-0.224585	0.000001	-4.914809	0.000042	-0.000000	-0.000000	0.000000	0.254000	0.000000	-0.232000	0.000000	0.000000	0.000000	
4.794000	-54.445568	623.293762	24.365419	0.681931	0.000000	-0.224435	0.000010	-4.922410	0.000032	-0.000000	-0.000000	0.000000	0.254000	0.000000	-0.232000	0.000000	0.000000	0.000000	
4.795000	-55.263218	625.369568	24.452950	0.681898	0.000000	-0.224319	0.000011	-4.867056	0.000020	-0.000000	-0.000000	0.000000	0.254000	0.000000	-0.232000	0.000000	0.000000	0.000000	
4.796000	-56.062016	627.625000	24.396877	0.681679	0.000000	-0.224311	0.000006	-4.969000	0.000017	-0.000000	-0.000000	0.000000	0.254000	0.000000	-0.232000	0.000000	0.000000	0.000000	
4.797000	-57.028446	627.931885	24.614098	0.681463	0.000000	-0.224139	0.000014	-4.919068	0.000012	-0.000000	-0.000000	0.000000	0.254000	0.000000	-0.232000	0.000000	0.000000	0.000000	
4.798000	-57.799023	629.410828	24.747648	0.681322	0.000000	-0.224278	0.000001	-4.864351	0.000020	-0.000000	-0.000000	0.000000	0.254000	0.000000	-0.232000	0.000000	0.000000	0.000000	
4.799000	-58.200054	631.603760	24.649540	0.681224	0.000000	-0.224321	0.000007	-4.859839	0.000018	-0.000000	-0.000000	0.000000	0.254000	0.000000	-0.232000	0.000000	0.000000	0.000000	
4.800000	-58.989674	632.318420	24.659004	0.681108	0.000000	-0.224296	0.000005	-4.893161	0.000033	-0.000000	-0.000000	0.000000	0.254000	0.000000	-0.232000	0.000000	0.000000	0.000000	
4.801000	-59.827553	632.825867	24.516365	0.680854	0.000000	-0.224288	0.000014	-4.938237	0.000034	-0.000000	-0.000000	0.000000	0.254000	0.000000	-0.232000	0.000000	0.000000	0.000000	
4.802000	-60.329975	634.355652	24.430750	0.680687	0.000000	-0.224179	0.000008	-4.940651	0.000039	-0.000000	-0.000000	0.000000	0.254000	0.000000	-0.232000	0.000000	0.000000	0.000000	
4.803000	-61.293640	635.202942	24.558201	0.680238	0.000000	-0.223972	0.000006	-4.923149	0.000030	-0.000000	-0.000000	0.000000	0.254000	0.000000	-0.232000	0.000000	0.000000	0.000000	
4.804000	-62.381042	637.796936	24.672943	0.680214	0.000000	-0.223949	0.000014	-4.879185	0.000052	-0.000000	-0.000000	0.000000	0.254000	0.000000	-0.232000	0.000000	0.000000	0.000000	
4.805000	-63.095364	640.162476	24.997942	0.680338	0.000000	-0.224052	0.000007	-4.808748	-0.000006	-0.000000	-0.000000	0.000000	0.254000	0.000000	-0.232000	0.000000	0.000000	0.000000	
4.806000	-63.799450	641.121155	25.156212	0.680071	0.000000	-0.224213	0.000005	-4.794971	0.000018	-0.000000	-0.000000	0.000000	0.254000	0.000000	-0.232000	0.000000	0.000000	0.000000	
4.807000	-64.658409	642.662659	25.207729	0.680025	0.000000	-0.224174	0.000002	-4.814573	-0.000010	-0.000000	-0.000000	0.000000	0.254000	0.000000	-0.232000	0.000000	0.000000	0.000000	
4.808000	-65.446312	643.168152	25.384275	0.679844	0.000000	-0.223968	0.000001	-4.797800	0.000020	-0.000000	-0.000000	0.000000	0.254000	0.000000	-0.232000	0.000000	0.000000	0.000000	
4.809000	-66.586441	645.018188	25.509706	0.679649	0.000000	-0.224069	0.000012	-4.783187	0.000053	-0.000000	-0.000000	0.000000	0.254000	0.000000	-0.232000	0.000000	0.000000	0.000000	
4.810000	-67.423912	646.588562	25.505987	0.679622	0.000000	-0.224048	0.000008	-4.722453	0.000045	-0.000000	-0.000000	0.000000	0.254000	0.000000	-0.232000	0.000000	0.000000	0.000000	
4.811000	-68.124229	647.912903	25.794220	0.679543	0.000000	-0.224032	0.000009	-4.643524	0.000033	-0.000000	-0.000000	0.000000	0.254000	0.000000	-0.232000	0.000000	0.000000	0.000000	
4.812000	-69.082222	648.636230	25.847914	0.679184	0.000000	-0.223948	0.000000	-4.647186	0.000029	-0.000000	-0.000000	0.000000	0.254000	0.000000	-0.232000	0.000000	0.000000	0.000000	
4.813000	-69.943886	649.948364	25.612387	0.679064	0.000000	-0.223997	0.000011	-4.710180	0.000014	-0.000000	-0.000000	0.000000	0.254000	0.000000	-0.232000	0.000000	0.000000	0.000000	
4.814000	-70.427834	652.396606	25.886204	0.679171	0.000000	-0.224004	0.000004	-4.707151	0.000009	-0.000000	-0.000000	0.000000	0.254000	0.000000	-0.232000	0.000000	0.000000	0.000000	
4.815000	-70.969658	653.579651	26.046846	0.678899	0.000000	-0.223887	0.000007	-4.662594	0.000022	-0.000000	-0.000000	0.000000	0.254000	0.000000	-0.232000	0.000000	0.000000	0.000000	
4.816000	-71.577797	653.128113	26.282759	0.678720	0.000000	-0.223761	0.000003	-4.616047	0.000011	-0.000000	-0.000000	0.000000	0.254000	0.000000	-0.232000	0.000000	0.000000	0.000000	
4.817000	-72.522079	654.392639	26.561823	0.678579	0.000000	-0.223759	0.000009	-4.538866	0.000045	-0.000000	-0.000000	0.000000	0.254000	0.000000	-0.232000	0.000000	0.000000	0.000000	
4.818000	-73.513817	656.117798	26.711674	0.678292	0.000000	-0.223784	0.000001	-4.488333	0.000016	-0.000000	-0.000000	0.000000	0.254000	0.000000	-0.232000	0.000000	0.000000	0.000000	
4.819000	-74.292435	656.969177	26.786501	0.677984	0.000000	-0.223748	-0.000001	-4.501854	0.000049	-0.000000	-0.000000	0.000000	0.254000	0.000000	-0.232000	0.000000	0.000000	0.000000	
4.820000	-75.054001	658.172791	26.608040	0.677587	0.000000	-0.223891	0.000003	-4.503615	0.000047	-0.000000	-0.000000	0.000000	0.254000	0.000000	-0.232000	0.000000	0.000000	0.000000	
4.821000	-75.803291	660.220337	26.762684	0.677868	0.000000	-0.223963	0.000007	-4.445242	0.000009	-0.000000	-0.000000	0.000000	0.254000	0.000000	-0.232000	0.000000	0.000000	0.000000	
4.822000	-76.889801	662.179993	26.789106	0.678009	0.000000	-0.224054	0.000008	-4.377194	-0.000013	-0.000000	-0.000000	0.000000	0.254000	0.000000	-0.232000	0.000000	0.000000	0.000000	
4.823000	-77.911728	661.983887	26.978231	0.677674	0.000000	-0.223887	0.000011	-4.372318	0.000029	-0.000000	-0.000000	0.000000	0.254000	0.000000	-0.232000	0.000000	0.000000	0.000000	
4.824000	-78.831627	662.375732	27.295893	0.677541	0.000000	-0.224009	0.000014	-4.301413	0.000020	-0.000000	-0.000000	0.000000	0.254000	0.000000	-0.232000	0.000000	0.000000	0.000000	
4.825000	-79.336143	663.421631	27.415993	0.677217	0.000000	-0.224054	0.000003	-4.231198	-0.000009	-0.000000	-0.000000	0.000000	0.254000	0.000000	-0.232000	0.000000	0.000000	0.000000	
4.826000	-79.903610	663.044250	27.660664	0.676930	0.000000	-0.223778	0.000006	-4.197489	0.000034	-0.000000	-0.000000	0.000000	0.254000	0.000000	-0.232000	0.000000	0.000000	0.000000	
4.827000	-81.010712	664.265564	27.811632	0.676815	0.000000	-0.224025	0.000004	-4.078670	0.000037	-0.000000	-0.000000	0.000000	0.254000	0.000000	-0.232000	0.000000	0.000000	0.000000	
4.828000	-82.100761	665.252686	27.909660	0.676580	0.000000	-0.224237	0.000009	-4.007296	0.000044	-0.000000	-0.000000	0.000000	0.254000	0.000000	-0.232000	0.000000	0.000000	0.000000	
4.829000	-82.974152	665.905701	27.861580	0.676506	0.000000	-0.223968	0.000003	-4.060641	0.000021	-0.000000	-0.000000	0.000000	0.254000	0.000000	-0.232000	0.000000	0.000000	0.000000	
4.830000	-83.931702	666.963318	27.745186	0.676396	0.000000	-0.223829	0.000010	-4.054203	0.000002	-0.000000	-0.000000	0.000000	0.254000	0.000000	-0.232000	0.000000	0.000000	0.000000	
4.831000	-84.740761	667.448181	28.051493	0.676340	0.000000	-0.223868	0.000007	-3.997935	0.000006	-0.000000	-0.000000	0.000000	0.254000	0.000000	-0.232000	0.000000	0.000000	0.000000	
4.832000	-85.521255	668.162964	28.384287	0.676312	0.000000	-0.223827	0.000004	-3.962050	0.000021	-0.000000	-0.000000	0.000000	0.254000	0.000000	-0.232000	0.000000	0.000000	0.000000	
4.833000	-86.561661	669.088745	28.383017	0.676335	0.000000	-0.223806	-0.000002	-3.877980	-0.000016	-0.000000	-0.000000	0.000000	0.254000	0.000000	-0.232000	0.000000	0.000000	0.000000	
4.834000	-87.243851	669.872986	28.518349	0.676254	0.000000	-0.223914	0.000007	-3.795363	0.000015	-0.000000	-0.000000	0.000000	0.254000	0.000000	-0.232000	0.000000	0.000000	0.000000	
4.835000	-88.270607	671.531250	28.444353	0.676282	0.000000	-0.223932	0.000007	-3.829826	0.000014	-0.000000	-0.000000	0.000000	0.254000	0.000000	-0.232000	0.000000	0.000000	0.000000	
4.836000	-89.143562	671.518005	28.458677	0.675894	0.000000	-0.223988	0.000007	-3.780117	0.000032	-0.000000	-0.000000	0.000000	0.254000	0.000000	-0.232000	0.000000	0.000000	0.000000	
4.837000	-90.178627	671.962585	28.790195	0.675544	0.000000	-0.223888	0.000013	-3.721248	0.000019	-0.000000	-0.000000	0.000000	0.254000	0.000000	-0.232000	0.000000	0.000000	0.000000	
4.838000	-90.781830	673.042969	28.973038	0.675478	0.000000	-0.223872	0.000008	-3.658083	0.000003	-0.000000	-0.000000	0.000000	0.254000	0.000000	-0.232000	0.000000	0.000000	0.000000	
4.839000	-91.290039	674.263916	29.213995	0.675276	0.000000	-0.223902	0.000008	-3.601733	0.000009	-0.000000	-0.000000	0.000000	0.254000	0.000000	-0.232000	0.000000	0.000000	0.000000	
4.840000	-92.250237	674.948486	29.122286	0.675211	0.000000	-0.223693	0.000012	-3.564081	0.000011	-0.000000	-0.000000	0.000000	0.254000	0.000000	-0.232000	0.000000	0.000000	0.000000	
